<?xml version="1.0" encoding="UTF-8" standalone="no"?>
<!-- Created with Inkscape (http://www.inkscape.org/) -->

<svg
   width="140mm"
   height="140mm"
   viewBox="0 0 140 140"
   version="1.1"
   id="svg5"
   xml:space="preserve"
   xmlns="http://www.w3.org/2000/svg"
   xmlns:svg="http://www.w3.org/2000/svg"><defs
     id="defs2" /><g
     id="layer1"><g
       id="g662"
       transform="matrix(2.4108004,0,0,2.4108004,-166.53978,-257.63091)"><g
         aria-label="ت"
         id="text516-3"
         style="font-size:35.2777px;font-family:'B Titr';-inkscape-font-specification:'B Titr';text-align:center;text-anchor:middle;fill:#aa0000;stroke-width:2.083"
         transform="rotate(149.14048,67.51612,100.86999)"><path
           d="m 71.029831,36.828947 c 0.149287,0.114836 0.143547,0.25264 -0.01722,0.413411 l -2.049827,2.015376 c -0.149287,0.149287 -0.298575,0.149287 -0.447862,0 l -1.929249,-1.877573 -1.894798,1.877573 c -0.149287,0.149287 -0.298575,0.149287 -0.447862,0 l -2.049827,-1.998151 c -0.160771,-0.160771 -0.143544,-0.338767 0.05168,-0.533989 l 1.877573,-1.912023 c 0.172255,-0.172255 0.350251,-0.172255 0.533989,0 l 1.929249,1.843122 1.825896,-1.843122 c 0.172255,-0.172255 0.350251,-0.172255 0.533989,0 z"
           id="path526-6" /></g><path
         style="fill:#aa0000;stroke-width:0.264583"
         d="m 99.02278,153.6499 c -3.85674,-0.77205 -7.58116,-3.51516 -9.39616,-6.92044 -1.7304,-3.24657 -2.29366,-7.81422 -1.43121,-11.60613 0.43963,-1.93293 0.90482,-2.64812 0.90649,-1.39368 0.001,0.87185 0.99895,2.64029 1.29765,2.29989 0.11281,-0.12857 0.3464,-0.8953 0.51907,-1.70385 0.74834,-3.50405 2.95861,-6.89517 6.96153,-10.68075 4.94879,-4.6801 7.62492,-8.27532 7.62492,-10.24361 0,-1.28365 0.47473,-0.83682 0.81253,0.76477 0.24589,1.16581 0.25004,1.94124 0.0178,3.31807 -0.38394,2.27575 -1.14094,3.76148 -3.48981,6.84935 -1.9354,2.5443 -3.34677,4.85743 -4.08826,6.70035 l -0.42558,1.05775 0.72822,-0.92605 c 0.40052,-0.50932 1.72982,-1.93807 2.954,-3.175 l 2.22578,-2.24895 -1.7159,2.51354 c -0.94374,1.38244 -2.03118,3.14044 -2.41654,3.90666 -2.06394,4.10388 -1.84495,8.38841 0.48554,9.49975 1.16036,0.55333 2.55976,0.29061 3.65244,-0.6857 0.73974,-0.66096 0.84568,-0.93696 0.94234,-2.45502 0.0872,-1.36983 -0.003,-1.92987 -0.45363,-2.81302 -0.52279,-1.02474 -0.52916,-1.10267 -0.0902,-1.10267 0.25977,0 0.92679,0.24358 1.48227,0.5413 0.93344,0.50029 0.99901,0.5053 0.8656,0.0661 -0.39797,-1.31 -0.69416,-4.25787 -0.53653,-5.33975 0.1866,-1.28065 0.9508,-3.04054 1.45583,-3.35267 0.20958,-0.12952 0.23011,0.001 0.0699,0.44507 -0.38589,1.06935 -0.21249,3.21182 0.35067,4.33262 0.29247,0.58208 1.02089,1.95179 1.6187,3.0438 1.97571,3.60899 2.40226,7.23999 1.26645,10.78067 -0.29882,0.93149 0.27554,0.71192 1.02577,-0.39214 l 0.671,-0.98746 -0.003,1.0536 c -0.011,3.69236 -2.41736,7.39763 -5.48263,8.44207 -2.22319,0.75752 -2.45521,0.5776 -1.08331,-0.84002 1.17007,-1.20906 1.80659,-2.14419 1.80659,-2.65413 0,-0.13284 -0.61974,0.0652 -1.37719,0.44004 -4.97826,2.46372 -11.49701,-0.72541 -14.8087,-7.24477 l -1.07523,-2.11666 0.13972,1.5875 c 0.37607,4.27285 3.40425,8.30153 7.96268,10.59352 1.86598,0.93822 1.86958,1.01415 0.0306,0.64601 z m 14.30905,-14.9437 c -0.10342,-0.43656 -0.40993,-1.43294 -0.68115,-2.21416 l -0.49313,-1.42041 0.78453,0.75162 c 0.92468,0.8859 1.10107,1.49265 0.79965,2.75066 l -0.22188,0.92604 z M 90.81841,126.92504 c -0.213,-0.67111 0.48494,-1.94611 1.43602,-2.62334 0.6949,-0.49482 2.97562,-1.4515 3.03931,-1.27489 0.0137,0.0379 -0.95228,1.04205 -2.14659,2.23136 -1.81456,1.80698 -2.19731,2.08095 -2.32874,1.66687 z"
         id="path248" /><g
         aria-label="ر    ل"
         id="text358"
         style="font-size:35.2777px;-inkscape-font-specification:sans-serif;text-align:center;text-anchor:middle;fill:#aa0000;stroke-width:2.083"
         transform="rotate(-25.238182,82.492827,56.811913)"><path
           d="m 85.155607,146.34695 q 0,6.42509 -3.376186,10.00798 -0.396185,0.41341 -1.050752,0.41341 h -8.07873 q -1.429712,0 -1.429712,-1.17133 0,-0.63734 0.602891,-0.93018 2.273758,-1.0852 5.615493,-3.37618 4.34081,-2.96278 4.34081,-4.22023 0,-1.03353 -3.875723,-4.65087 l 2.75607,-5.6844 q 0.241156,-0.48231 0.637341,-0.12058 2.101503,1.8948 2.928325,3.8585 0.930173,2.22208 0.930173,5.87388 z"
           style="-inkscape-font-specification:'B Titr'"
           id="path614" /></g><path
         d="m 81.806379,151.5515 c -0.279443,-0.19246 -0.464142,-0.36214 -0.554094,-0.50904 -0.137924,-0.22524 -0.06489,-0.42481 0.219119,-0.59873 0.254634,-0.1559 0.702217,-0.3156 1.342814,-0.47891 -3.468361,-4.36657 -6.42593,-8.54769 -8.872705,-12.54338 -1.835086,-2.99677 -2.611417,-5.75987 -2.328995,-8.28929 0.30938,-2.81526 1.923281,-5.11643 4.841699,-6.90353 2.54627,-1.55922 4.891852,-2.00584 7.036758,-1.33982 1.747936,0.54551 3.182628,1.73395 4.304072,3.56532 0.73163,1.19477 1.336065,2.58866 1.813289,4.18161 0.593005,1.9799 0.556495,3.17375 -0.109448,3.58155 -0.607187,0.37181 -1.234622,0.0289 -1.882292,-1.0288 -0.137936,-0.22525 -0.313554,-0.589 -0.52686,-1.09128 -0.207305,-0.49247 -0.382926,-0.85622 -0.526852,-1.09126 -1.193402,-1.94887 -3.293384,-2.00278 -6.299942,-0.1617 -1.449413,0.88756 -2.454418,1.69823 -3.015004,2.43201 -0.875958,1.14234 -0.942126,2.3207 -0.198492,3.53509 1.001496,1.63548 3.035609,4.09967 6.102344,7.39256 2.601382,2.79683 4.908906,5.11377 6.922585,6.95086 l -1.690193,5.51905 c -0.153066,0.4977 -0.288357,0.78254 -0.405878,0.8545 -0.117538,0.0719 -0.417044,-0.0543 -0.898562,-0.37889 z"
         style="-inkscape-font-specification:'B Titr';fill:#aa0000"
         id="path631" /></g></g></svg>
